<mxfile host="Electron" modified="2023-04-16T13:40:06.248Z" agent="Mozilla/5.0 (Windows NT 10.0; Win64; x64) AppleWebKit/537.36 (KHTML, like Gecko) draw.io/21.1.2 Chrome/106.0.5249.199 Electron/21.4.3 Safari/537.36" etag="DrQ2a-Ym0C4ZslU2xjpt" version="21.1.2" type="device" pages="2">
  <diagram name="Atlas" id="H26nXxs9jrHIrZ-2a4Xs">
    <mxGraphModel dx="1098" dy="868" grid="1" gridSize="10" guides="1" tooltips="1" connect="1" arrows="1" fold="1" page="1" pageScale="1" pageWidth="850" pageHeight="1100" math="0" shadow="0">
      <root>
        <mxCell id="0" />
        <mxCell id="1" parent="0" />
        <mxCell id="p7tv5ZMaGPWYkRfvVxhL-1" value="PostgreSQL Database" style="image;sketch=0;aspect=fixed;html=1;points=[];align=center;fontSize=12;image=img/lib/mscae/Azure_Database_for_PostgreSQL_servers.svg;" parent="1" vertex="1">
          <mxGeometry x="20" y="850" width="106.4" height="140" as="geometry" />
        </mxCell>
        <mxCell id="p7tv5ZMaGPWYkRfvVxhL-3" style="edgeStyle=orthogonalEdgeStyle;rounded=0;orthogonalLoop=1;jettySize=auto;html=1;" parent="1" source="p7tv5ZMaGPWYkRfvVxhL-2" target="p7tv5ZMaGPWYkRfvVxhL-1" edge="1">
          <mxGeometry relative="1" as="geometry" />
        </mxCell>
        <mxCell id="p7tv5ZMaGPWYkRfvVxhL-4" value="" style="edgeStyle=orthogonalEdgeStyle;rounded=0;orthogonalLoop=1;jettySize=auto;html=1;startArrow=classic;startFill=1;strokeWidth=2;" parent="1" source="p7tv5ZMaGPWYkRfvVxhL-2" target="p7tv5ZMaGPWYkRfvVxhL-1" edge="1">
          <mxGeometry relative="1" as="geometry" />
        </mxCell>
        <mxCell id="p7tv5ZMaGPWYkRfvVxhL-6" style="edgeStyle=orthogonalEdgeStyle;rounded=0;orthogonalLoop=1;jettySize=auto;html=1;entryX=0;entryY=0.5;entryDx=0;entryDy=0;startArrow=classic;startFill=1;strokeWidth=2;" parent="1" source="p7tv5ZMaGPWYkRfvVxhL-2" target="p7tv5ZMaGPWYkRfvVxhL-5" edge="1">
          <mxGeometry relative="1" as="geometry" />
        </mxCell>
        <mxCell id="p7tv5ZMaGPWYkRfvVxhL-2" value="RestfulAPI&lt;br&gt;(Postgrest)" style="sketch=0;points=[[0,0,0],[0.25,0,0],[0.5,0,0],[0.75,0,0],[1,0,0],[0,1,0],[0.25,1,0],[0.5,1,0],[0.75,1,0],[1,1,0],[0,0.25,0],[0,0.5,0],[0,0.75,0],[1,0.25,0],[1,0.5,0],[1,0.75,0]];outlineConnect=0;fontColor=#232F3E;gradientColor=#FF4F8B;gradientDirection=north;fillColor=#BC1356;strokeColor=#ffffff;dashed=0;verticalLabelPosition=top;verticalAlign=bottom;align=center;html=1;fontSize=12;fontStyle=0;aspect=fixed;shape=mxgraph.aws4.resourceIcon;resIcon=mxgraph.aws4.api_gateway;labelPosition=center;" parent="1" vertex="1">
          <mxGeometry x="34.2" y="630" width="78" height="78" as="geometry" />
        </mxCell>
        <mxCell id="p7tv5ZMaGPWYkRfvVxhL-5" value="Node.js&lt;br&gt;(Server Side Web application)" style="image;html=1;image=img/lib/clip_art/computers/Server_Tower_128x128.png" parent="1" vertex="1">
          <mxGeometry x="191" y="614.5" width="90" height="109" as="geometry" />
        </mxCell>
        <mxCell id="lSmCwQCQ2wHkFqMTiZco-2" style="edgeStyle=orthogonalEdgeStyle;rounded=0;orthogonalLoop=1;jettySize=auto;html=1;entryX=1;entryY=0.5;entryDx=0;entryDy=0;startArrow=classic;startFill=1;strokeWidth=2;endArrow=none;endFill=0;" parent="1" source="lSmCwQCQ2wHkFqMTiZco-1" target="p7tv5ZMaGPWYkRfvVxhL-5" edge="1">
          <mxGeometry relative="1" as="geometry" />
        </mxCell>
        <mxCell id="lSmCwQCQ2wHkFqMTiZco-1" value="QGIS" style="verticalLabelPosition=bottom;html=1;verticalAlign=top;align=center;strokeColor=none;fillColor=#00BEF2;shape=mxgraph.azure.startup_task;pointerEvents=1;" parent="1" vertex="1">
          <mxGeometry x="336" y="619" width="100" height="100" as="geometry" />
        </mxCell>
        <mxCell id="lSmCwQCQ2wHkFqMTiZco-6" style="edgeStyle=orthogonalEdgeStyle;rounded=0;orthogonalLoop=1;jettySize=auto;html=1;entryX=0.98;entryY=0.58;entryDx=0;entryDy=0;entryPerimeter=0;endArrow=none;endFill=0;startArrow=classic;startFill=1;strokeWidth=2;" parent="1" source="lSmCwQCQ2wHkFqMTiZco-5" target="lSmCwQCQ2wHkFqMTiZco-1" edge="1">
          <mxGeometry relative="1" as="geometry" />
        </mxCell>
        <mxCell id="lSmCwQCQ2wHkFqMTiZco-8" style="edgeStyle=orthogonalEdgeStyle;rounded=0;orthogonalLoop=1;jettySize=auto;html=1;strokeWidth=2;" parent="1" source="lSmCwQCQ2wHkFqMTiZco-5" target="lSmCwQCQ2wHkFqMTiZco-7" edge="1">
          <mxGeometry relative="1" as="geometry" />
        </mxCell>
        <mxCell id="lSmCwQCQ2wHkFqMTiZco-5" value="Generated Map" style="html=1;verticalLabelPosition=bottom;align=center;labelBackgroundColor=#ffffff;verticalAlign=top;strokeWidth=2;strokeColor=#0080F0;shadow=0;dashed=0;shape=mxgraph.ios7.icons.map;" parent="1" vertex="1">
          <mxGeometry x="490" y="639" width="80" height="76" as="geometry" />
        </mxCell>
        <mxCell id="5_Z1W5HYKg1ldgOR-2N8-1" style="edgeStyle=elbowEdgeStyle;rounded=0;orthogonalLoop=1;jettySize=auto;html=1;entryX=0.5;entryY=0;entryDx=0;entryDy=0;elbow=vertical;startArrow=classic;startFill=1;" edge="1" parent="1" source="lSmCwQCQ2wHkFqMTiZco-7" target="p7tv5ZMaGPWYkRfvVxhL-5">
          <mxGeometry relative="1" as="geometry">
            <mxPoint x="220" y="460" as="targetPoint" />
            <Array as="points">
              <mxPoint x="490" y="540" />
            </Array>
          </mxGeometry>
        </mxCell>
        <mxCell id="5_Z1W5HYKg1ldgOR-2N8-2" value="&lt;font style=&quot;font-size: 17px;&quot;&gt;HTTP Requests&lt;/font&gt;" style="edgeLabel;html=1;align=center;verticalAlign=middle;resizable=0;points=[];" vertex="1" connectable="0" parent="5_Z1W5HYKg1ldgOR-2N8-1">
          <mxGeometry x="-0.2202" relative="1" as="geometry">
            <mxPoint x="-85" y="-12" as="offset" />
          </mxGeometry>
        </mxCell>
        <mxCell id="lSmCwQCQ2wHkFqMTiZco-7" value="Client" style="pointerEvents=1;shadow=0;dashed=0;html=1;strokeColor=none;fillColor=#4495D1;labelPosition=center;verticalLabelPosition=bottom;verticalAlign=top;align=center;outlineConnect=0;shape=mxgraph.veeam.laptop;" parent="1" vertex="1">
          <mxGeometry x="670" y="624.5" width="140" height="105" as="geometry" />
        </mxCell>
      </root>
    </mxGraphModel>
  </diagram>
  <diagram id="HZryhQmTPlMrOCKH9kqg" name="Database">
    <mxGraphModel dx="1098" dy="868" grid="1" gridSize="10" guides="1" tooltips="1" connect="1" arrows="1" fold="1" page="1" pageScale="1" pageWidth="850" pageHeight="1100" math="0" shadow="0">
      <root>
        <mxCell id="0" />
        <mxCell id="1" parent="0" />
        <mxCell id="DlYRAL-HTcU2KDhzBMli-2" style="edgeStyle=orthogonalEdgeStyle;rounded=0;orthogonalLoop=1;jettySize=auto;html=1;strokeWidth=2;entryX=0;entryY=0.5;entryDx=0;entryDy=0;" edge="1" parent="1" source="nXk4bBFREYWQYh726TpO-1" target="DlYRAL-HTcU2KDhzBMli-4">
          <mxGeometry relative="1" as="geometry">
            <mxPoint x="200" y="344.5" as="targetPoint" />
          </mxGeometry>
        </mxCell>
        <mxCell id="nXk4bBFREYWQYh726TpO-1" value="Weeks worth of&amp;nbsp;&lt;br&gt;information" style="image;aspect=fixed;html=1;points=[];align=center;fontSize=12;image=img/lib/azure2/general/File.svg;" vertex="1" parent="1">
          <mxGeometry x="30" y="310" width="56.00000000000001" height="69" as="geometry" />
        </mxCell>
        <mxCell id="DlYRAL-HTcU2KDhzBMli-3" value="Copy Data&lt;br&gt;To Databse" style="text;html=1;align=center;verticalAlign=middle;resizable=0;points=[];autosize=1;strokeColor=none;fillColor=none;" vertex="1" parent="1">
          <mxGeometry x="90" y="300" width="80" height="40" as="geometry" />
        </mxCell>
        <mxCell id="DlYRAL-HTcU2KDhzBMli-4" value="PostgreSQL Database" style="swimlane;whiteSpace=wrap;html=1;" vertex="1" parent="1">
          <mxGeometry x="250" y="244.5" width="550" height="555.5" as="geometry" />
        </mxCell>
        <mxCell id="DlYRAL-HTcU2KDhzBMli-5" value="Weeks Data" style="swimlane;childLayout=stackLayout;horizontal=1;startSize=50;horizontalStack=0;rounded=1;fontSize=14;fontStyle=0;strokeWidth=2;resizeParent=0;resizeLast=1;shadow=0;dashed=0;align=center;arcSize=4;whiteSpace=wrap;html=1;" vertex="1" parent="DlYRAL-HTcU2KDhzBMli-4">
          <mxGeometry x="40" y="65.5" width="390" height="404.5" as="geometry" />
        </mxCell>
        <mxCell id="DlYRAL-HTcU2KDhzBMli-6" value="&lt;div style=&quot;font-size: 16px;&quot;&gt;&lt;font style=&quot;font-size: 16px;&quot;&gt;utc_timestamp text,&lt;/font&gt;&lt;/div&gt;&lt;div style=&quot;font-size: 16px;&quot;&gt;&lt;font style=&quot;font-size: 16px;&quot;&gt;&amp;nbsp; &amp;nbsp; local_timestamp text,&lt;/font&gt;&lt;/div&gt;&lt;div style=&quot;font-size: 16px;&quot;&gt;&lt;font style=&quot;font-size: 16px;&quot;&gt;&amp;nbsp; &amp;nbsp; caid text,&lt;/font&gt;&lt;/div&gt;&lt;div style=&quot;font-size: 16px;&quot;&gt;&lt;font style=&quot;font-size: 16px;&quot;&gt;&amp;nbsp; &amp;nbsp; id_type text,&lt;/font&gt;&lt;/div&gt;&lt;div style=&quot;font-size: 16px;&quot;&gt;&lt;font style=&quot;font-size: 16px;&quot;&gt;&amp;nbsp; &amp;nbsp; location_name text,&lt;/font&gt;&lt;/div&gt;&lt;div style=&quot;font-size: 16px;&quot;&gt;&lt;font style=&quot;font-size: 16px;&quot;&gt;&amp;nbsp; &amp;nbsp; top_category text,&lt;/font&gt;&lt;/div&gt;&lt;div style=&quot;font-size: 16px;&quot;&gt;&lt;font style=&quot;font-size: 16px;&quot;&gt;&amp;nbsp; &amp;nbsp; sub_category text,&lt;/font&gt;&lt;/div&gt;&lt;div style=&quot;font-size: 16px;&quot;&gt;&lt;font style=&quot;font-size: 16px;&quot;&gt;&amp;nbsp; &amp;nbsp; street_address text,&lt;/font&gt;&lt;/div&gt;&lt;div style=&quot;font-size: 16px;&quot;&gt;&lt;font style=&quot;font-size: 16px;&quot;&gt;&amp;nbsp; &amp;nbsp; city text,&lt;/font&gt;&lt;/div&gt;&lt;div style=&quot;font-size: 16px;&quot;&gt;&lt;font style=&quot;font-size: 16px;&quot;&gt;&amp;nbsp; &amp;nbsp; states text,&lt;/font&gt;&lt;/div&gt;&lt;div style=&quot;font-size: 16px;&quot;&gt;&lt;font style=&quot;font-size: 16px;&quot;&gt;&amp;nbsp; &amp;nbsp; naics_code bigint,&lt;/font&gt;&lt;/div&gt;&lt;div style=&quot;font-size: 16px;&quot;&gt;&lt;font style=&quot;font-size: 16px;&quot;&gt;&amp;nbsp; &amp;nbsp; brands text,&lt;/font&gt;&lt;/div&gt;&lt;div style=&quot;font-size: 16px;&quot;&gt;&lt;font style=&quot;font-size: 16px;&quot;&gt;&amp;nbsp; &amp;nbsp; zip_code text,&lt;/font&gt;&lt;/div&gt;&lt;div style=&quot;font-size: 16px;&quot;&gt;&lt;font style=&quot;font-size: 16px;&quot;&gt;&amp;nbsp; &amp;nbsp; minimum_dwell decimal,&lt;/font&gt;&lt;/div&gt;&lt;div style=&quot;font-size: 16px;&quot;&gt;&lt;font style=&quot;font-size: 16px;&quot;&gt;&amp;nbsp; &amp;nbsp; safegraph_place_id text,&lt;/font&gt;&lt;/div&gt;&lt;div style=&quot;font-size: 16px;&quot;&gt;&lt;font style=&quot;font-size: 16px;&quot;&gt;&amp;nbsp; &amp;nbsp; geohash_5 text,&lt;/font&gt;&lt;/div&gt;&lt;div style=&quot;font-size: 16px;&quot;&gt;&lt;font style=&quot;font-size: 16px;&quot;&gt;&amp;nbsp; &amp;nbsp; census_block_group text,&lt;/font&gt;&lt;/div&gt;&lt;div style=&quot;font-size: 16px;&quot;&gt;&lt;font style=&quot;font-size: 16px;&quot;&gt;&amp;nbsp; &amp;nbsp; placekey text&lt;/font&gt;&lt;/div&gt;" style="align=left;strokeColor=none;fillColor=none;spacingLeft=4;fontSize=12;verticalAlign=top;resizable=0;rotatable=0;part=1;html=1;" vertex="1" parent="DlYRAL-HTcU2KDhzBMli-5">
          <mxGeometry y="50" width="390" height="354.5" as="geometry" />
        </mxCell>
      </root>
    </mxGraphModel>
  </diagram>
</mxfile>
